# xmcd
# 
# Track frame offsets:
#     150
#     18296
#     32262
#     47222
#     59270
#     72370
#     90743
#     104953
#     123268
#     139232
# 
# Disc length: 2112
# 
# Revision: 0
# Processed by: cddbd v1.5.2PL0 Copyright (c) Steve Scherf et al.
# Submitted via: fre:ac v1.1beta1pre4
# 
DISCID=8a083e0a
DTITLE=Various Artist - Kom Ånd
DYEAR=2019
DGENRE=Kids praise
TTITLE0=Klara-Liv - Kom Ånd, Kom Ånd, Kom Ånd, Kom Helligånd
TTITLE1=Noah - Ja-Hatten
TTITLE2=Kirstine - Kærlighedsbriller
TTITLE3=Kirstine, Katrine and Regitze - Helligånd, du må gerne bo lige her
TTITLE4=Signe - Søndag
TTITLE5=Kirstine - Hvem er jeg
TTITLE6=Niels Peter og Noah - Medaljen
TTITLE7=Signe - Hvad hvis
TTITLE8=Regitze og Katrine - Trosbekendelsen
TTITLE9=Kirstine og Sofia - Velsignelsen
EXTD=
EXTT0=
EXTT1=
EXTT2=
EXTT3=
EXTT4=
EXTT5=
EXTT6=
EXTT7=
EXTT8=
EXTT9=
PLAYORDER=
